<svg width="927" height="54" viewBox="0 0 927 54" fill="none" xmlns="http://www.w3.org/2000/svg">
<circle cx="26.4" cy="27.0001" r="24.8" fill="#FFC849" stroke="black" stroke-width="3.2"/>
<g clip-path="url(#clip0_47_789)">
<path d="M42.2504 11.2225C37.5756 13.6578 33.1448 18.3078 28.9565 25.1738C26.8134 28.582 25.1582 31.7478 23.9895 34.6695L19.6799 25.9773L10.6226 31.6017C12.5699 32.2839 14.786 33.6717 17.2695 35.7651C19.8012 37.9082 22.2365 40.4151 24.5739 43.2886C26.4248 39.7825 29.2486 35.863 33.0469 31.5286C37.2834 26.6595 40.5222 23.9803 42.7617 23.4938C41.983 21.5947 41.6178 19.5247 41.666 17.2851C41.9582 14.6556 42.1525 12.6352 42.2504 11.2225Z" fill="black"/>
</g>
<circle cx="137.8" cy="27.0001" r="5" fill="#FFC849" fill-opacity="0.4"/>
<circle cx="160.8" cy="27.0001" r="5" fill="#FFC849" fill-opacity="0.5"/>
<circle cx="183.8" cy="27.0001" r="5" fill="#FFC849" fill-opacity="0.6"/>
<circle cx="206.8" cy="27.0001" r="5" fill="#FFC849" fill-opacity="0.7"/>
<circle cx="229.8" cy="27.0001" r="5" fill="#FFC849" fill-opacity="0.8"/>
<circle cx="252.8" cy="27.0001" r="5" fill="#FFC849" fill-opacity="0.9"/>
<circle cx="275.8" cy="27.0001" r="5" fill="#FFC849"/>
<circle cx="298.8" cy="27.0001" r="5" fill="#FFC849"/>
<circle cx="321.8" cy="27.0001" r="5" fill="#FFC849"/>
<path d="M356.8 27.0001L344.05 34.3613L344.05 19.6389L356.8 27.0001Z" fill="#FFC849"/>
<circle cx="463.2" cy="27.0001" r="24.8" fill="#FFC849" stroke="black" stroke-width="3.2"/>
<g clip-path="url(#clip1_47_789)">
<path d="M479.05 11.2225C474.376 13.6578 469.945 18.3078 465.757 25.1738C463.613 28.582 461.958 31.7478 460.79 34.6695L456.48 25.9773L447.423 31.6017C449.37 32.2839 451.586 33.6717 454.07 35.7651C456.601 37.9082 459.037 40.4151 461.374 43.2886C463.225 39.7825 466.049 35.863 469.847 31.5286C474.083 26.6595 477.322 23.9803 479.562 23.4938C478.783 21.5947 478.418 19.5247 478.466 17.2851C478.758 14.6556 478.953 12.6352 479.05 11.2225Z" fill="black"/>
</g>
<circle cx="574.6" cy="27.0001" r="5" fill="#FFC849" fill-opacity="0.4"/>
<circle cx="597.6" cy="27.0001" r="5" fill="#FFC849" fill-opacity="0.5"/>
<circle cx="620.6" cy="27.0001" r="5" fill="#FFC849" fill-opacity="0.6"/>
<circle cx="643.6" cy="27.0001" r="5" fill="#FFC849" fill-opacity="0.7"/>
<circle cx="666.6" cy="27.0001" r="5" fill="#FFC849" fill-opacity="0.8"/>
<circle cx="689.6" cy="27.0001" r="5" fill="#FFC849" fill-opacity="0.9"/>
<circle cx="712.6" cy="27.0001" r="5" fill="#FFC849"/>
<circle cx="735.6" cy="27.0001" r="5" fill="#FFC849"/>
<circle cx="758.6" cy="27.0001" r="5" fill="#FFC849"/>
<path d="M793.6 27.0001L780.85 34.3613L780.85 19.6389L793.6 27.0001Z" fill="#FFC849"/>
<circle cx="900" cy="27.0001" r="24.8" fill="#FFC849" stroke="black" stroke-width="3.2"/>
<g clip-path="url(#clip2_47_789)">
<path d="M915.85 11.2225C911.176 13.6578 906.745 18.3078 902.556 25.1738C900.413 28.582 898.758 31.7478 897.589 34.6695L893.28 25.9773L884.223 31.6017C886.17 32.2839 888.386 33.6717 890.869 35.7651C893.401 37.9082 895.836 40.4151 898.174 43.2886C900.025 39.7825 902.849 35.863 906.647 31.5286C910.883 26.6595 914.122 23.9803 916.362 23.4938C915.583 21.5947 915.218 19.5247 915.266 17.2851C915.558 14.6556 915.752 12.6352 915.85 11.2225Z" fill="black"/>
</g>
<defs>
<clipPath id="clip0_47_789">
<rect width="33.6" height="33.6" fill="white" transform="translate(9.59998 10.2)"/>
</clipPath>
<clipPath id="clip1_47_789">
<rect width="33.6" height="33.6" fill="white" transform="translate(446.4 10.2)"/>
</clipPath>
<clipPath id="clip2_47_789">
<rect width="33.6" height="33.6" fill="white" transform="translate(883.2 10.2)"/>
</clipPath>
</defs>
</svg>
