<svg width="927" height="54" viewBox="0 0 927 54" fill="none" xmlns="http://www.w3.org/2000/svg">
<circle cx="26.4" cy="27.0001" r="24.8" fill="#FFC849" stroke="black" stroke-width="3.2"/>
<g clip-path="url(#clip0_47_1162)">
<path d="M42.2504 11.2226C37.5756 13.6579 33.1448 18.3078 28.9565 25.1739C26.8134 28.5821 25.1582 31.7478 23.9895 34.6696L19.6799 25.9774L10.6226 31.6018C12.5699 32.284 14.786 33.6718 17.2695 35.7652C19.8012 37.9083 22.2365 40.4152 24.5739 43.2887C26.4248 39.7826 29.2486 35.8631 33.0469 31.5287C37.2834 26.6596 40.5222 23.9804 42.7617 23.4939C41.983 21.5948 41.6178 19.5247 41.666 17.2852C41.9582 14.6557 42.1525 12.6353 42.2504 11.2226Z" fill="black"/>
</g>
<circle cx="137.8" cy="27.0001" r="5" fill="#FFC849" fill-opacity="0.4"/>
<circle cx="160.8" cy="27.0001" r="5" fill="#FFC849" fill-opacity="0.5"/>
<circle cx="183.8" cy="27.0001" r="5" fill="#FFC849" fill-opacity="0.6"/>
<circle cx="206.8" cy="27.0001" r="5" fill="#FFC849" fill-opacity="0.7"/>
<circle cx="229.8" cy="27.0001" r="5" fill="#FFC849" fill-opacity="0.8"/>
<circle cx="252.8" cy="27.0001" r="5" fill="#FFC849" fill-opacity="0.9"/>
<circle cx="275.8" cy="27.0001" r="5" fill="#FFC849"/>
<circle cx="298.8" cy="27.0001" r="5" fill="#FFC849"/>
<circle cx="321.8" cy="27.0001" r="5" fill="#FFC849"/>
<path d="M356.8 27.0001L344.05 34.3613L344.05 19.6389L356.8 27.0001Z" fill="#FFC849"/>
<circle cx="463.2" cy="27.0001" r="24.8" fill="#FFC849" stroke="black" stroke-width="3.2"/>
<g clip-path="url(#clip1_47_1162)">
<path d="M479.05 11.2226C474.376 13.6579 469.945 18.3078 465.757 25.1739C463.613 28.5821 461.958 31.7478 460.79 34.6696L456.48 25.9774L447.423 31.6018C449.37 32.284 451.586 33.6718 454.07 35.7652C456.601 37.9083 459.037 40.4152 461.374 43.2887C463.225 39.7826 466.049 35.8631 469.847 31.5287C474.083 26.6596 477.322 23.9804 479.562 23.4939C478.783 21.5948 478.418 19.5247 478.466 17.2852C478.758 14.6557 478.953 12.6353 479.05 11.2226Z" fill="black"/>
</g>
<circle cx="574.6" cy="27.0001" r="5" fill="#FFC849" fill-opacity="0.4"/>
<circle cx="597.6" cy="27.0001" r="5" fill="#FFC849" fill-opacity="0.5"/>
<circle cx="620.6" cy="27.0001" r="5" fill="#FFC849" fill-opacity="0.6"/>
<circle cx="643.6" cy="27.0001" r="5" fill="#FFC849" fill-opacity="0.7"/>
<circle cx="666.6" cy="27.0001" r="5" fill="#FFC849" fill-opacity="0.8"/>
<circle cx="689.6" cy="27.0001" r="5" fill="#FFC849" fill-opacity="0.9"/>
<circle cx="712.6" cy="27.0001" r="5" fill="#FFC849"/>
<circle cx="735.6" cy="27.0001" r="5" fill="#FFC849"/>
<circle cx="758.6" cy="27.0001" r="5" fill="#FFC849"/>
<path d="M793.6 27.0001L780.85 34.3613L780.85 19.6389L793.6 27.0001Z" fill="#FFC849"/>
<circle cx="900" cy="27.0001" r="24.8" fill="#FF0F0F" stroke="black" stroke-width="3.2"/>
<g clip-path="url(#clip2_47_1162)">
<path d="M888.086 12.6001L885.659 14.6425C889.981 17.8689 894.006 21.5689 897.544 25.2689C892.127 30.7301 887.879 36.1025 885.644 38.2633L890.262 42.1261C891.905 38.7369 895.472 33.6013 900.252 28.2141C905.032 33.6309 908.614 38.7961 910.257 42.2001C910.257 42.2001 914.756 37.4197 915.156 38.1597C913.424 36.2061 909.191 30.5229 903.508 24.7065C906.764 21.3617 910.42 18.0465 914.327 15.1309L913.261 13.1477C908.836 15.3529 904.618 18.6237 900.829 22.1017C897.011 18.4757 892.689 15.0273 888.086 12.6001Z" fill="black"/>
</g>
<defs>
<clipPath id="clip0_47_1162">
<rect width="33.6" height="33.6" fill="white" transform="translate(9.59998 10.2)"/>
</clipPath>
<clipPath id="clip1_47_1162">
<rect width="33.6" height="33.6" fill="white" transform="translate(446.4 10.2)"/>
</clipPath>
<clipPath id="clip2_47_1162">
<rect width="29.6" height="29.6" fill="white" transform="translate(885.6 12.6001)"/>
</clipPath>
</defs>
</svg>
