<svg width="434" height="100" viewBox="0 0 434 100" fill="none" xmlns="http://www.w3.org/2000/svg">
<g clip-path="url(#clip0_1_94)">
<path d="M75.0002 80C76.6571 80 78.0002 78.6568 78.0002 77V70.1496C78.0002 67.4426 74.6978 66.1202 72.8294 68.079L66.2952 74.9293C64.474 76.8387 65.8274 80 68.466 80H75.0002Z" fill="#333333"/>
<path d="M16 77C16 78.6568 17.3431 80 19 80H25.5342C28.1729 80 29.5262 76.8387 27.705 74.9293L21.1708 68.079C19.3024 66.1202 16 67.4426 16 70.1496V77Z" fill="#333333"/>
<path d="M21.1708 33.421C19.3024 31.4622 16 32.7846 16 35.4916V44.1397C16 44.9114 16.2974 45.6534 16.8303 46.2115L38.7416 69.158L44.8293 75.5594C46.0107 76.8017 47.9909 76.8031 49.1741 75.5627L77.1708 46.2113C77.7031 45.6533 78 44.9118 78 44.1406V35.4916C78 32.7846 74.6976 31.4622 72.8292 33.421L47 60.5L21.1708 33.421Z" fill="#333333"/>
</g>
<path d="M147.916 42.88V67H142.156V54.976L135.856 67H132.184L125.848 54.904V67H120.088V42.88H125.92L134.02 57.82L142.12 42.88H147.916ZM169.792 57.964V59.44H156.544C156.76 60.52 157.228 61.384 157.948 61.996C158.632 62.644 159.46 62.932 160.432 62.932C162.232 62.932 163.492 62.248 164.284 60.844L169.396 61.888C168.604 63.76 167.452 65.2 165.904 66.136C164.356 67.072 162.52 67.54 160.432 67.54C157.768 67.54 155.5 66.676 153.664 64.876C151.792 63.076 150.892 60.772 150.892 57.964C150.892 55.192 151.792 52.888 153.664 51.088C155.5 49.288 157.768 48.388 160.468 48.388C163.06 48.388 165.256 49.288 167.056 51.016C168.82 52.78 169.72 55.084 169.792 57.964ZM160.468 53.068C159.604 53.068 158.848 53.32 158.128 53.824C157.408 54.328 156.904 55.048 156.652 55.912H164.104C163.816 54.976 163.384 54.292 162.736 53.788C162.088 53.32 161.332 53.068 160.468 53.068ZM196.187 48.388C198.131 48.388 199.787 49.072 201.119 50.44C202.415 51.808 203.099 53.536 203.099 55.696V67H197.375V56.92C197.375 55.912 197.087 55.12 196.511 54.508C195.935 53.896 195.215 53.572 194.351 53.572C193.271 53.572 192.407 53.968 191.759 54.76C191.111 55.552 190.823 56.668 190.823 58.144V67H185.063V56.92C185.063 55.912 184.775 55.12 184.199 54.508C183.623 53.896 182.867 53.572 182.003 53.572C180.923 53.572 180.059 53.968 179.447 54.76C178.835 55.552 178.547 56.668 178.547 58.144V67H172.787V48.928H178.547V50.584C179.843 49.144 181.643 48.388 183.875 48.388C186.539 48.388 188.483 49.432 189.779 51.448C191.327 49.432 193.451 48.388 196.187 48.388ZM224.741 57.964V59.44H211.493C211.709 60.52 212.177 61.384 212.897 61.996C213.581 62.644 214.409 62.932 215.381 62.932C217.181 62.932 218.441 62.248 219.233 60.844L224.345 61.888C223.553 63.76 222.401 65.2 220.853 66.136C219.305 67.072 217.469 67.54 215.381 67.54C212.717 67.54 210.449 66.676 208.613 64.876C206.741 63.076 205.841 60.772 205.841 57.964C205.841 55.192 206.741 52.888 208.613 51.088C210.449 49.288 212.717 48.388 215.417 48.388C218.009 48.388 220.205 49.288 222.005 51.016C223.769 52.78 224.669 55.084 224.741 57.964ZM215.417 53.068C214.553 53.068 213.797 53.32 213.077 53.824C212.357 54.328 211.853 55.048 211.601 55.912H219.053C218.765 54.976 218.333 54.292 217.685 53.788C217.037 53.32 216.281 53.068 215.417 53.068ZM247.336 52.78H260.62C260.692 53.572 260.764 54.292 260.764 54.976C260.764 58.648 259.576 61.636 257.236 64.012C254.86 66.388 251.872 67.54 248.272 67.54C244.6 67.54 241.54 66.352 239.02 63.904C236.5 61.492 235.276 58.504 235.276 54.94C235.276 51.412 236.5 48.46 238.984 46.012C241.468 43.564 244.528 42.34 248.164 42.34C250.9 42.34 253.348 42.988 255.508 44.248C257.632 45.508 259.108 47.272 259.936 49.576L254.212 51.232C253.024 48.928 251.008 47.776 248.164 47.776C246.184 47.776 244.528 48.46 243.232 49.828C241.9 51.196 241.252 52.924 241.252 54.94C241.252 56.992 241.9 58.72 243.268 60.088C244.636 61.456 246.328 62.14 248.344 62.14C249.892 62.14 251.224 61.78 252.34 60.988C253.456 60.232 254.248 59.188 254.716 57.82H247.336V52.78ZM281.835 57.964V59.44H268.587C268.803 60.52 269.271 61.384 269.991 61.996C270.675 62.644 271.503 62.932 272.475 62.932C274.275 62.932 275.535 62.248 276.327 60.844L281.439 61.888C280.647 63.76 279.495 65.2 277.947 66.136C276.399 67.072 274.563 67.54 272.475 67.54C269.811 67.54 267.543 66.676 265.707 64.876C263.835 63.076 262.935 60.772 262.935 57.964C262.935 55.192 263.835 52.888 265.707 51.088C267.543 49.288 269.811 48.388 272.511 48.388C275.103 48.388 277.299 49.288 279.099 51.016C280.863 52.78 281.763 55.084 281.835 57.964ZM272.511 53.068C271.647 53.068 270.891 53.32 270.171 53.824C269.451 54.328 268.947 55.048 268.695 55.912H276.147C275.859 54.976 275.427 54.292 274.779 53.788C274.131 53.32 273.375 53.068 272.511 53.068ZM296.134 48.388C298.222 48.388 299.914 49.108 301.21 50.476C302.506 51.844 303.154 53.68 303.154 55.912V67H297.43V57.136C297.43 56.092 297.142 55.228 296.566 54.58C295.99 53.932 295.234 53.572 294.334 53.572C293.146 53.572 292.21 54.004 291.562 54.832C290.914 55.66 290.59 56.92 290.59 58.612V67H284.83V48.928H290.59V50.656C292.03 49.144 293.866 48.388 296.134 48.388ZM324.796 57.964V59.44H311.548C311.764 60.52 312.232 61.384 312.952 61.996C313.636 62.644 314.464 62.932 315.436 62.932C317.236 62.932 318.496 62.248 319.288 60.844L324.4 61.888C323.608 63.76 322.456 65.2 320.908 66.136C319.36 67.072 317.524 67.54 315.436 67.54C312.772 67.54 310.504 66.676 308.668 64.876C306.796 63.076 305.896 60.772 305.896 57.964C305.896 55.192 306.796 52.888 308.668 51.088C310.504 49.288 312.772 48.388 315.472 48.388C318.064 48.388 320.26 49.288 322.06 51.016C323.824 52.78 324.724 55.084 324.796 57.964ZM315.472 53.068C314.608 53.068 313.852 53.32 313.132 53.824C312.412 54.328 311.908 55.048 311.656 55.912H319.108C318.82 54.976 318.388 54.292 317.74 53.788C317.092 53.32 316.336 53.068 315.472 53.068ZM339.779 48.676C340.247 48.676 340.679 48.748 341.075 48.82L340.823 54.58H339.779C335.603 54.58 333.551 56.848 333.551 61.348V67H327.791V48.928H333.551V52.384C335.027 49.936 337.115 48.676 339.779 48.676ZM362.409 48.928V67H356.649V65.56C355.173 66.892 353.301 67.54 351.033 67.54C348.585 67.54 346.497 66.676 344.769 64.876C343.041 63.076 342.213 60.772 342.213 57.964C342.213 55.192 343.041 52.888 344.769 51.088C346.497 49.288 348.585 48.388 351.033 48.388C353.301 48.388 355.173 49.072 356.649 50.368V48.928H362.409ZM352.221 62.644C353.409 62.644 354.453 62.212 355.317 61.348C356.181 60.484 356.649 59.332 356.649 57.964C356.649 56.632 356.181 55.516 355.317 54.616C354.453 53.752 353.409 53.284 352.221 53.284C350.925 53.284 349.881 53.752 349.089 54.616C348.261 55.48 347.865 56.596 347.865 57.964C347.865 59.368 348.261 60.484 349.089 61.348C349.881 62.212 350.925 62.644 352.221 62.644ZM378.628 61.672L379.96 66.208C378.304 67.108 376.648 67.54 375.028 67.54C372.724 67.54 370.96 66.928 369.7 65.704C368.44 64.48 367.828 62.716 367.828 60.34V53.5H364.552V48.928H367.828V43.6H373.588V48.928H378.916V53.5H373.588V59.764C373.588 61.528 374.38 62.392 376 62.392C376.9 62.392 377.764 62.176 378.628 61.672ZM390.611 48.46C393.347 48.46 395.687 49.36 397.631 51.124C399.539 52.924 400.511 55.192 400.511 57.964C400.511 60.772 399.539 63.076 397.631 64.84C395.687 66.64 393.347 67.504 390.611 67.504C387.803 67.504 385.427 66.64 383.483 64.84C381.539 63.076 380.603 60.772 380.603 57.964C380.603 55.192 381.539 52.924 383.483 51.124C385.427 49.36 387.803 48.46 390.611 48.46ZM390.611 62.644C391.763 62.644 392.807 62.212 393.671 61.348C394.535 60.484 394.967 59.332 394.967 57.964C394.967 56.596 394.499 55.48 393.635 54.616C392.771 53.752 391.763 53.284 390.611 53.284C389.387 53.284 388.343 53.752 387.479 54.616C386.579 55.48 386.147 56.596 386.147 57.964C386.147 59.332 386.579 60.484 387.443 61.348C388.307 62.212 389.387 62.644 390.611 62.644ZM415.471 48.676C415.939 48.676 416.371 48.748 416.767 48.82L416.515 54.58H415.471C411.295 54.58 409.243 56.848 409.243 61.348V67H403.483V48.928H409.243V52.384C410.719 49.936 412.807 48.676 415.471 48.676Z" fill="#333333"/>
<defs>
<clipPath id="clip0_1_94">
<rect width="62" height="52" fill="white" transform="translate(16 28)"/>
</clipPath>
</defs>
</svg>
